<?xml version="1.0" encoding="utf-8"?>
<svg xmlns="http://www.w3.org/2000/svg" style="margin: auto; background: none; display: block; shape-rendering: auto;" width="78" height="40" preserveAspectRatio="xMidYMid">
<style type="text/css">
  text {
    text-anchor: middle; font-size: 30px; opacity: 0;
  }
</style>
<g style="transform-origin: 39px 20px; transform: scale(1.15385);">
<g transform="translate(39,20)">
  <g transform="translate(0,0)"><g class="path" style="transform: scale(0.91); transform-origin: -12.78px -1.81907px; animation: 1s linear -0.44s infinite normal forwards running breath-14e01eae-dea3-4fe1-835f-10203967fb9d;"><path d="M6.73-6.92L6.73-6.92L5.25-6.92L5.25-6.76L5.56 0L2.08 0L2.39-6.32L2.08-17.94L7.72-17.94L7.72-17.94Q10.22-17.94 11.70-16.59L11.70-16.59L11.70-16.59Q13.18-15.24 13.18-13.00L13.18-13.00L13.18-13.00Q13.18-11.31 12.31-9.92L12.31-9.92L12.31-9.92Q11.44-8.53 9.96-7.72L9.96-7.72L14.48-1.33L11.34 0.29L7.28-6.94L7.28-6.94Q7.10-6.92 6.73-6.92zM6.79-15.31L6.79-15.31L5.51-15.31L5.33-9.44L7.10-9.44L7.10-9.44Q8.40-9.44 9.11-10.30L9.11-10.30L9.11-10.30Q9.83-11.15 9.83-12.74L9.83-12.74L9.83-12.74Q9.83-15.31 6.79-15.31" fill="#fffbf3" stroke="none" stroke-width="none" transform="translate(-21.060009956359863,7.005932299296054)" style="fill: rgb(255, 251, 243);"></path></g><g class="path" style="transform: scale(0.91); transform-origin: 2.34999px -1.97907px; animation: 1s linear -0.22s infinite normal forwards running breath-14e01eae-dea3-4fe1-835f-10203967fb9d;"><path d="M31.38-0.44L27.64 0.13L26.36-4.94L20.15-4.94L18.77 0L15.44-0.26L17.73-6.58L21.22-17.76L25.87-18.10L29.22-6.97L31.38-0.44zM25.58-7.70L23.53-14.72L23.19-14.72L20.96-7.70L25.58-7.70" fill="#fffbf3" stroke="none" stroke-width="none" transform="translate(-21.060009956359863,7.005932299296054)" style="fill: rgb(255, 251, 243);"></path></g><g class="path" style="transform: scale(0.91); transform-origin: 17.095px -1.94907px; animation: 1s linear 0s infinite normal forwards running breath-14e01eae-dea3-4fe1-835f-10203967fb9d;"><path d="M32.11-2.37L34.14-5.17L34.14-5.17Q36.35-2.96 38.56-2.96L38.56-2.96L38.56-2.96Q39.70-2.96 40.39-3.50L40.39-3.50L40.39-3.50Q41.08-4.03 41.08-4.88L41.08-4.88L41.08-4.88Q41.08-5.72 40.25-6.31L40.25-6.31L40.25-6.31Q39.42-6.89 38.23-7.33L38.23-7.33L38.23-7.33Q37.05-7.77 35.88-8.33L35.88-8.33L35.88-8.33Q34.71-8.89 33.88-9.93L33.88-9.93L33.88-9.93Q33.05-10.97 33.05-12.45L33.05-12.45L33.05-12.45Q33.05-14.79 35.00-16.50L35.00-16.50L35.00-16.50Q36.95-18.20 39.62-18.20L39.62-18.20L39.62-18.20Q40.85-18.20 41.99-17.94L41.99-17.94L41.99-17.94Q43.13-17.68 44.20-17.19L44.20-17.19L42.43-13.39L42.43-13.39Q41.70-13.96 40.44-14.44L40.44-14.44L40.44-14.44Q39.18-14.92 38.23-14.92L38.23-14.92L38.23-14.92Q37.28-14.92 36.70-14.47L36.70-14.47L36.70-14.47Q36.11-14.01 36.11-13.26L36.11-13.26L36.11-13.26Q36.11-12.51 36.95-11.92L36.95-11.92L36.95-11.92Q37.78-11.34 38.96-10.89L38.96-10.89L38.96-10.89Q40.14-10.45 41.33-9.92L41.33-9.92L41.33-9.92Q42.51-9.39 43.34-8.35L43.34-8.35L43.34-8.35Q44.17-7.31 44.17-5.82L44.17-5.82L44.17-5.82Q44.17-3.38 42.22-1.55L42.22-1.55L42.22-1.55Q40.27 0.29 37.67 0.29L37.67 0.29L37.67 0.29Q35.72 0.29 34.22-0.65L34.22-0.65L34.22-0.65Q32.89-1.46 32.34-2.08L32.34-2.08L32.11-2.37" fill="#fffbf3" stroke="none" stroke-width="none" transform="translate(-21.060009956359863,7.005932299296054)" style="fill: rgb(255, 251, 243);"></path></g></g>
</g>
</g>
<style id="breath-14e01eae-dea3-4fe1-835f-10203967fb9d" data-anikit="">@keyframes breath-14e01eae-dea3-4fe1-835f-10203967fb9d
{
  0% {
    animation-timing-function: cubic-bezier(0.9647,0.2413,-0.0705,0.7911);
    transform: scale(0.9099999999999999);
  }
  51% {
    animation-timing-function: cubic-bezier(0.9226,0.2631,-0.0308,0.7628);
    transform: scale(1.02994);
  }
  100% {
    transform: scale(0.9099999999999999);
  }
}</style></svg>