<?xml version="1.0" encoding="utf-8"?>
<svg xmlns="http://www.w3.org/2000/svg" style="margin: auto; background: none; display: block; shape-rendering: auto;" width="78" height="40" preserveAspectRatio="xMidYMid">
<style type="text/css">
  text {
    text-anchor: middle; font-size: 34px; opacity: 0;
  }
</style>
<g style="transform-origin: 39px 20px; transform: scale(1.54545);">
<g transform="translate(39,20)">
  <g transform="translate(0,0)"><g class="path" style="transform: scale(0.91); transform-origin: -10.815px -1.54327px; animation: 1s linear -0.44s infinite normal forwards running breath-42c492fb-5bd1-4381-b377-4d9804adf110;"><path d="M5.70-5.85L5.70-5.85L4.44-5.85L4.44-5.72L4.71 0L1.76 0L2.02-5.35L1.76-15.18L6.53-15.18L6.53-15.18Q8.65-15.18 9.90-14.04L9.90-14.04L9.90-14.04Q11.15-12.89 11.15-11L11.15-11L11.15-11Q11.15-9.57 10.42-8.39L10.42-8.39L10.42-8.39Q9.68-7.22 8.43-6.53L8.43-6.53L12.25-1.12L9.59 0.24L6.16-5.87L6.16-5.87Q6.01-5.85 5.70-5.85zM5.74-12.96L5.74-12.96L4.66-12.96L4.51-7.99L6.01-7.99L6.01-7.99Q7.11-7.99 7.71-8.71L7.71-8.71L7.71-8.71Q8.32-9.44 8.32-10.78L8.32-10.78L8.32-10.78Q8.32-12.96 5.74-12.96" fill="#fffcfc" stroke="none" stroke-width="none" transform="translate(-17.819976806640625,5.926733811696378)" style="fill: rgb(255, 252, 252);"></path></g><g class="path" style="transform: scale(0.91); transform-origin: 1.99002px -1.67327px; animation: 1s linear -0.22s infinite normal forwards running breath-42c492fb-5bd1-4381-b377-4d9804adf110;"><path d="M26.55-0.37L23.39 0.11L22.31-4.18L17.05-4.18L15.88 0L13.07-0.22L15.00-5.57L17.95-15.03L21.89-15.31L24.73-5.90L26.55-0.37zM21.65-6.51L19.91-12.45L19.62-12.45L17.73-6.51L21.65-6.51" fill="#fffcfc" stroke="none" stroke-width="none" transform="translate(-17.819976806640625,5.926733811696378)" style="fill: rgb(255, 252, 252);"></path></g><g class="path" style="transform: scale(0.91); transform-origin: 14.465px -1.65326px; animation: 1s linear 0s infinite normal forwards running breath-42c492fb-5bd1-4381-b377-4d9804adf110;"><path d="M27.17-2.00L28.89-4.38L28.89-4.38Q30.76-2.51 32.63-2.51L32.63-2.51L32.63-2.51Q33.59-2.51 34.18-2.96L34.18-2.96L34.18-2.96Q34.76-3.41 34.76-4.13L34.76-4.13L34.76-4.13Q34.76-4.84 34.06-5.33L34.06-5.33L34.06-5.33Q33.35-5.83 32.35-6.20L32.35-6.20L32.35-6.20Q31.35-6.58 30.36-7.05L30.36-7.05L30.36-7.05Q29.37-7.52 28.67-8.40L28.67-8.40L28.67-8.40Q27.96-9.28 27.96-10.54L27.96-10.54L27.96-10.54Q27.96-12.52 29.61-13.96L29.61-13.96L29.61-13.96Q31.26-15.40 33.53-15.40L33.53-15.40L33.53-15.40Q34.56-15.40 35.53-15.18L35.53-15.18L35.53-15.18Q36.50-14.96 37.40-14.54L37.40-14.54L35.90-11.33L35.90-11.33Q35.29-11.81 34.22-12.22L34.22-12.22L34.22-12.22Q33.15-12.63 32.35-12.63L32.35-12.63L32.35-12.63Q31.55-12.63 31.05-12.24L31.05-12.24L31.05-12.24Q30.56-11.86 30.56-11.22L30.56-11.22L30.56-11.22Q30.56-10.58 31.26-10.09L31.26-10.09L31.26-10.09Q31.97-9.59 32.97-9.22L32.97-9.22L32.97-9.22Q33.97-8.84 34.97-8.39L34.97-8.39L34.97-8.39Q35.97-7.94 36.67-7.06L36.67-7.06L36.67-7.06Q37.38-6.18 37.38-4.93L37.38-4.93L37.38-4.93Q37.38-2.86 35.73-1.31L35.73-1.31L35.73-1.31Q34.08 0.24 31.88 0.24L31.88 0.24L31.88 0.24Q30.23 0.24 28.95-0.55L28.95-0.55L28.95-0.55Q27.83-1.23 27.37-1.76L27.37-1.76L27.17-2.00" fill="#fffcfc" stroke="none" stroke-width="none" transform="translate(-17.819976806640625,5.926733811696378)" style="fill: rgb(255, 252, 252);"></path></g></g>
</g>
</g>
<style id="breath-42c492fb-5bd1-4381-b377-4d9804adf110" data-anikit="">@keyframes breath-42c492fb-5bd1-4381-b377-4d9804adf110
{
  0% {
    animation-timing-function: cubic-bezier(0.9647,0.2413,-0.0705,0.7911);
    transform: scale(0.9099999999999999);
  }
  51% {
    animation-timing-function: cubic-bezier(0.9226,0.2631,-0.0308,0.7628);
    transform: scale(1.02994);
  }
  100% {
    transform: scale(0.9099999999999999);
  }
}</style></svg>