<?xml version="1.0" encoding="utf-8"?>
<svg xmlns="http://www.w3.org/2000/svg" style="margin: auto; background: none; display: block; shape-rendering: auto;" width="80" height="40" preserveAspectRatio="xMidYMid">
<style type="text/css">
  text {
    text-anchor: middle; font-size: 35px; opacity: 0;
  }
</style>
<g style="transform-origin: 40px 20px; transform: scale(0.492958);">
<g transform="translate(40,20)">
  <g transform="translate(0,0)"><g class="path" style="transform: scale(0.91); transform-origin: -28.0184px -6.30594px; animation: 1s linear -0.44s infinite normal forwards running breath-5b7b61a3-9660-4b1e-9444-2428bf7b2aa9;"><path d="M16.13-15.50L16.13 0L4.70 0L4.70-41.48L25.09-41.48L25.09-41.48Q27.97-41.48 30.65-40.81L30.65-40.81L30.65-40.81Q33.33-40.13 35.39-38.68L35.39-38.68L35.39-38.68Q37.45-37.22 38.68-34.92L38.68-34.92L38.68-34.92Q39.90-32.61 39.90-29.33L39.90-29.33L39.90-29.33Q39.90-26.76 38.82-24.50L38.82-24.50L38.82-24.50Q37.74-22.24 35.94-20.47L35.94-20.47L35.94-20.47Q34.14-18.70 31.80-17.53L31.80-17.53L31.80-17.53Q29.47-16.36 26.96-15.99L26.96-15.99L26.96-15.99Q28.09-14.09 29.31-12.39L29.31-12.39L29.31-12.39Q30.54-10.69 31.79-9.20L31.79-9.20L31.79-9.20Q33.04-7.72 34.28-6.47L34.28-6.47L34.28-6.47Q35.52-5.21 36.64-4.18L36.64-4.18L36.64-4.18Q39.29-1.76 41.89 0L41.89 0L27.63 0L27.63 0Q25.90-1.64 24.34-3.95L24.34-3.95L24.34-3.95Q23.02-5.91 21.68-8.80L21.68-8.80L21.68-8.80Q20.34-11.70 19.62-15.50L19.62-15.50L16.13-15.50zM28.29-29.33L28.29-29.33L28.29-29.33Q28.29-33.50 26.26-35.46L26.26-35.46L26.26-35.46Q24.23-37.42 20.17-37.42L20.17-37.42L16.13-37.42L16.13-19.42L20.17-19.42L20.17-19.42Q22.33-19.42 23.87-20.24L23.87-20.24L23.87-20.24Q25.41-21.06 26.39-22.43L26.39-22.43L26.39-22.43Q27.37-23.80 27.83-25.58L27.83-25.58L27.83-25.58Q28.29-27.37 28.29-29.33" fill="#999999" stroke="none" stroke-width="none" transform="translate(-51.31339740753174,14.434057668050137)" style="fill: rgb(153, 153, 153);"></path></g><g class="path" style="transform: scale(0.91); transform-origin: 15.4693px -2.34594px; animation: 1s linear -0.22s infinite normal forwards running breath-5b7b61a3-9660-4b1e-9444-2428bf7b2aa9;"><path d="M86.77-19.85L86.77-19.85L86.77-19.30L86.77-19.30Q86.71-16.88 86.27-14.29L86.27-14.29L86.27-14.29Q85.82-11.70 85.01-9.10L85.01-9.10L85.01-9.10Q84.21-6.51 83.08-3.98L83.08-3.98L83.08-3.98Q81.96-1.44 80.56 0.88L80.56 0.88L80.56 0.88Q79.17 3.20 77.55 5.23L77.55 5.23L77.55 5.23Q75.94 7.26 74.15 8.82L74.15 8.82L69.86 6.34L69.86 6.34Q70.87 4.64 71.69 2.64L71.69 2.64L71.69 2.64Q72.51 0.63 73.17-1.56L73.17-1.56L73.17-1.56Q73.84-3.75 74.31-6.05L74.31-6.05L74.31-6.05Q74.79-8.35 75.10-10.63L75.10-10.63L75.10-10.63Q75.42-12.91 75.58-15.11L75.58-15.11L75.58-15.11Q75.74-17.31 75.74-19.30L75.74-19.30L75.74-19.30Q75.74-20.86 75.72-22.83L75.72-22.83L75.72-22.83Q75.71-24.80 75.49-26.85L75.49-26.85L75.49-26.85Q75.28-28.90 74.79-30.84L74.79-30.84L74.79-30.84Q74.30-32.78 73.33-34.31L73.33-34.31L73.33-34.31Q72.37-35.84 70.85-36.76L70.85-36.76L70.85-36.76Q69.34-37.68 67.10-37.68L67.10-37.68L67.10-37.68Q65.11-37.68 63.68-37.00L63.68-37.00L63.68-37.00Q62.26-36.33 61.26-35.19L61.26-35.19L61.26-35.19Q60.27-34.05 59.68-32.55L59.68-32.55L59.68-32.55Q59.09-31.06 58.76-29.40L58.76-29.40L58.76-29.40Q58.42-27.74 58.32-26.06L58.32-26.06L58.32-26.06Q58.22-24.37 58.22-22.87L58.22-22.87L58.22-14.84L70.64-14.84L70.64-10.08L58.22-10.08L58.22 0L46.79 0L46.79-21.09L46.79-21.09Q46.79-25.61 48.23-29.50L48.23-29.50L48.23-29.50Q49.67-33.39 52.30-36.26L52.30-36.26L52.30-36.26Q54.94-39.12 58.64-40.75L58.64-40.75L58.64-40.75Q62.34-42.38 66.89-42.38L66.89-42.38L66.89-42.38Q69.98-42.38 72.67-41.50L72.67-41.50L72.67-41.50Q75.36-40.62 77.58-39.08L77.58-39.08L77.58-39.08Q79.80-37.54 81.54-35.42L81.54-35.42L81.54-35.42Q83.29-33.30 84.45-30.80L84.45-30.80L84.45-30.80Q85.62-28.29 86.22-25.50L86.22-25.50L86.22-25.50Q86.83-22.70 86.77-19.85" fill="#999999" stroke="none" stroke-width="none" transform="translate(-51.31339740753174,14.434057668050137)" style="fill: rgb(153, 153, 153);"></path></g><g class="path" style="transform: scale(0.91); transform-origin: 58.6516px -6.39094px; animation: 1s linear 0s infinite normal forwards running breath-5b7b61a3-9660-4b1e-9444-2428bf7b2aa9;"><path d="M128.20-12.68L128.20-12.68L128.20-12.68Q128.20-10.00 127.52-7.95L127.52-7.95L127.52-7.95Q126.84-5.91 125.62-4.41L125.62-4.41L125.62-4.41Q124.40-2.91 122.72-1.90L122.72-1.90L122.72-1.90Q121.05-0.89 119.08-0.29L119.08-0.29L119.08-0.29Q117.11 0.32 114.90 0.58L114.90 0.58L114.90 0.58Q112.70 0.84 110.42 0.84L110.42 0.84L110.42 0.84Q107.43 0.84 104.89 0.39L104.89 0.39L104.89 0.39Q102.36-0.06 100.12-1.02L100.12-1.02L100.12-1.02Q97.89-1.99 95.83-3.51L95.83-3.51L95.83-3.51Q93.77-5.04 91.73-7.23L91.73-7.23L97.60-13.19L97.60-13.19Q98.41-11.21 99.82-9.52L99.82-9.52L99.82-9.52Q101.23-7.84 102.92-6.63L102.92-6.63L102.92-6.63Q104.60-5.42 106.42-4.72L106.42-4.72L106.42-4.72Q108.23-4.03 109.85-4.03L109.85-4.03L109.85-4.03Q111.75-4.03 113.42-4.31L113.42-4.31L113.42-4.31Q115.09-4.58 116.33-5.21L116.33-5.21L116.33-5.21Q117.57-5.85 118.27-6.90L118.27-6.90L118.27-6.90Q118.98-7.95 118.98-9.54L118.98-9.54L118.98-9.54Q118.98-10.75 118.43-11.61L118.43-11.61L118.43-11.61Q117.88-12.47 117.01-13.09L117.01-13.09L117.01-13.09Q116.13-13.71 115.00-14.15L115.00-14.15L115.00-14.15Q113.88-14.58 112.71-14.88L112.71-14.88L112.71-14.88Q111.55-15.18 110.42-15.43L110.42-15.43L110.42-15.43Q109.30-15.67 108.44-15.93L108.44-15.93L108.44-15.93Q106.74-16.42 104.89-16.98L104.89-16.98L104.89-16.98Q103.05-17.54 101.26-18.26L101.26-18.26L101.26-18.26Q99.48-18.98 97.88-19.92L97.88-19.92L97.88-19.92Q96.28-20.86 95.07-22.14L95.07-22.14L95.07-22.14Q93.86-23.42 93.14-25.11L93.14-25.11L93.14-25.11Q92.42-26.79 92.42-28.98L92.42-28.98L92.42-28.98Q92.42-31.60 93.07-33.63L93.07-33.63L93.07-33.63Q93.71-35.67 94.90-37.16L94.90-37.16L94.90-37.16Q96.08-38.66 97.69-39.68L97.69-39.68L97.69-39.68Q99.30-40.71 101.23-41.33L101.23-41.33L101.23-41.33Q103.16-41.95 105.34-42.22L105.34-42.22L105.34-42.22Q107.51-42.49 109.79-42.49L109.79-42.49L109.79-42.49Q112.90-42.49 115.45-41.92L115.45-41.92L115.45-41.92Q118-41.34 120.16-40.27L120.16-40.27L120.16-40.27Q122.32-39.21 124.12-37.72L124.12-37.72L124.12-37.72Q125.92-36.24 127.51-34.43L127.51-34.43L121.63-28.46L121.63-28.46Q120.94-30.54 119.71-32.21L119.71-32.21L119.71-32.21Q118.49-33.88 116.99-35.07L116.99-35.07L116.99-35.07Q115.49-36.27 113.85-36.92L113.85-36.92L113.85-36.92Q112.21-37.57 110.68-37.57L110.68-37.57L110.68-37.57Q108.69-37.57 107.02-37.29L107.02-37.29L107.02-37.29Q105.35-37.02 104.16-36.40L104.16-36.40L104.16-36.40Q102.96-35.78 102.30-34.73L102.30-34.73L102.30-34.73Q101.64-33.68 101.64-32.12L101.64-32.12L101.64-32.12Q101.64-30.88 102.13-30.02L102.13-30.02L102.13-30.02Q102.62-29.15 103.44-28.55L103.44-28.55L103.44-28.55Q104.26-27.94 105.30-27.56L105.30-27.56L105.30-27.56Q106.33-27.17 107.44-26.88L107.44-26.88L107.44-26.88Q108.55-26.59 109.63-26.37L109.63-26.37L109.63-26.37Q110.71-26.16 111.60-25.90L111.60-25.90L111.60-25.90Q113.33-25.41 115.23-24.86L115.23-24.86L115.23-24.86Q117.14-24.31 118.98-23.58L118.98-23.58L118.98-23.58Q120.82-22.85 122.49-21.89L122.49-21.89L122.49-21.89Q124.17-20.94 125.43-19.63L125.43-19.63L125.43-19.63Q126.70-18.32 127.45-16.61L127.45-16.61L127.45-16.61Q128.20-14.89 128.20-12.68" fill="#999999" stroke="none" stroke-width="none" transform="translate(-51.31339740753174,14.434057668050137)" style="fill: rgb(153, 153, 153);"></path></g></g>
</g>
</g>
<style id="breath-5b7b61a3-9660-4b1e-9444-2428bf7b2aa9" data-anikit="">@keyframes breath-5b7b61a3-9660-4b1e-9444-2428bf7b2aa9
{
  0% {
    animation-timing-function: cubic-bezier(0.9647,0.2413,-0.0705,0.7911);
    transform: scale(0.9099999999999999);
  }
  51% {
    animation-timing-function: cubic-bezier(0.9226,0.2631,-0.0308,0.7628);
    transform: scale(1.02994);
  }
  100% {
    transform: scale(0.9099999999999999);
  }
}</style></svg>